<svg id="playbook" class="playbook-icon" xmlns="http://www.w3.org/2000/svg" viewBox="0 0 830.95 1125.39" xml:space="preserve">
    <title>Playbook Icon</title>
    <path d="M53.24,1097.82H775.38c14.19,0,25.73-11.76,25.73-26.22V132.17c0-14.45-11.54-26.21-25.73-26.21H563.57l-8.89-27.78a10.51,10.51,0,0,0-10-7.29h-73.5c-5.58-22.82-28.95-40-56.87-40s-51.3,17.19-56.88,40h-73.5a10.49,10.49,0,0,0-10,7.29L265,106H53.24A26,26,0,0,0,27.5,132.17V1071.6C27.5,1086.06,39.05,1097.82,53.24,1097.82ZM414.31,51.87c20.49,0,37.17,13.24,37.17,29.51s-16.68,29.51-37.17,29.51-37.18-13.24-37.18-29.51S393.81,51.87,414.31,51.87Zm-122.72,40h65.84c5.58,22.83,28.95,40,56.88,40s51.29-17.18,56.87-40H537l39.64,123.76H251.94Zm309,129.49-11.08-34.58H722.74V1017H105.87V186.78H239.15l-11.58,36.14a10.5,10.5,0,0,0,10,13.69H591.19a10.49,10.49,0,0,0,9.35-15.25Zm-552-89.19a5,5,0,0,1,4.75-5.23H258.32l-14.69,45.85H91.88V1031H736.73V172.79H585L570.3,126.94H775.38a5,5,0,0,1,4.75,5.23V1071.6a5,5,0,0,1-4.75,5.24H53.24a5,5,0,0,1-4.75-5.24Z"/>
    <path d="M258,786.39l-2,0a61.26,61.26,0,0,0-2,122.49l2,0A61.26,61.26,0,0,0,258,786.39Zm30.34,95.73A47,47,0,0,1,256,894.89l-1.59,0A47.27,47.27,0,0,1,256,800.35l1.56,0a47.28,47.28,0,0,1,30.79,81.75Z"/>
    <path d="M234.07,406a47.36,47.36,0,0,0,29,10,47.85,47.85,0,0,0,5.82-.36,47.18,47.18,0,1,0-34.8-9.63Zm.1-59.77a36.49,36.49,0,0,1,24.43-13.85,38.82,38.82,0,0,1,4.54-.28,36.7,36.7,0,1,1-36.46,41.19A36.45,36.45,0,0,1,234.17,346.21Z"/>
    <path d="M227.67,703a53.12,53.12,0,1,0-39.2-10.84A53.3,53.3,0,0,0,221.1,703.4,52.2,52.2,0,0,0,227.67,703Zm-45.35-47.92a39.15,39.15,0,0,1,34-43.64,39.81,39.81,0,0,1,4.85-.29,39.13,39.13,0,1,1-38.89,43.93Z"/>
    <path d="M458.44,403a47.31,47.31,0,0,0,29,10,48.05,48.05,0,0,0,5.84-.36A47.18,47.18,0,1,0,458.44,403Zm.11-59.76A36.42,36.42,0,0,1,483,329.44a39,39,0,0,1,4.55-.28,36.69,36.69,0,1,1-29,14.12Z"/>
    <path d="M606.34,563.31a5.25,5.25,0,0,0-3.8-3.61,5.19,5.19,0,0,0-5,1.48l-53.78,56.43a5.25,5.25,0,0,0,7.6,7.24l40.09-42.08C570.46,699,500.65,758.65,442.1,788.69,411,749.37,384.34,692,381.92,609.78l25.7,40.55a5.24,5.24,0,1,0,8.86-5.61l-35.67-56.29a5.06,5.06,0,0,0-4.64-2.43,5.22,5.22,0,0,0-4.43,2.81l-30.91,59a5.24,5.24,0,1,0,9.29,4.86l21.39-40.83C374.28,694.61,401,753,432.46,793.43c-42.79,20.11-77.31,24.51-78.16,24.61a5.24,5.24,0,0,0,.59,10.45l.61,0c.89-.1,38.12-4.85,83.72-26.69A266.5,266.5,0,0,0,505.29,858a5.25,5.25,0,1,0,5.4-9,255.58,255.58,0,0,1-61.77-52.06c60.33-31.44,131.3-93.14,152.8-212.13l16.54,56.26a5.24,5.24,0,0,0,5,3.77,5.4,5.4,0,0,0,1.48-.21,5.26,5.26,0,0,0,3.56-6.52Z"/>
    <path d="M568.42,442.1a7,7,0,0,0-.21,9.9l29.68,31-35.15,24.59a7,7,0,0,0,4,12.73,6.92,6.92,0,0,0,4-1.27l36.93-25.83,31.19,32.54A7,7,0,0,0,649,516l-29.69-31,35.15-24.59a7,7,0,0,0-8-11.46L609.5,474.84l-31.2-32.53A7,7,0,0,0,568.42,442.1Z"/>
    <path d="M577.68,842a48.93,48.93,0,0,0-16,96.54,49.46,49.46,0,0,0,8,.66,48.93,48.93,0,0,0,7.93-97.2Zm26.5,54a34.94,34.94,0,1,1-34.53-40.65,35.87,35.87,0,0,1,5.75.47A35,35,0,0,1,604.18,896Z"/>
    <path d="M408.65,550a7,7,0,1,0,8.81-10.86l-33.33-27,31.81-28.79a7,7,0,0,0-9.39-10.37l-33.41,30.25-35-28.39a7,7,0,1,0-8.81,10.86l33.33,27-31.81,28.79a7,7,0,0,0,4.7,12.18,6.89,6.89,0,0,0,4.68-1.81l33.42-30.24Z"/>
</svg>
